arnold@studio:~$ clipgrab 
Adding Equifax CA certificate 
"sni-qt/20103" WARN  10:54:23.916 void StatusNotifierItemFactory::connectToSnw() Invalid interface to SNW_SERVICE 
nothing 
"137" "141" "HD (1080p)" 
"136" "141" "HD (720p)" 
"135" "140" "480p" 
"134" "140" "360p" 
"5" "" "240p" 
Discovered:  "How To Build An Awesome Funky Bass Line (L#107)" 
"How To Build An Awesome Funky Bass Line (L#107)" 
Downloading video file:  "https://r6---sn-oxujvavbox-jbol.googlevideo.com/videoplayback?sparams=clen,dur,gir,id,initcwndbps,ip,ipbits,itag,keepalive,lmt,mime,mm,mn,ms,mv,pl,requiressl,source,upn,expire&requiressl=yes&fexp=9405331,9405966,9406516,9406851,9408502,9408710,9409069,9410705,9412773,9412877,9412927,9415365,9415485,9416023,9416126,9417707,9418153,9419032&dur=1745.000&keepalive=yes&key=yt5&ip=87.79.217.252&id=o-AA8GtWl4i-pDVZq3nDOq1tc6VYcxm7c4qQN2jKKhZq12&mm=31&mn=sn-oxujvavbox-jbol&ipbits=0&ms=au&mt=1439974379&pl=15&gir=yes&signature=39DCB4FBD7A226826174EFD0CFEAC9B8AFFDA4F3.AFA9EC2B9A32DF0BCAB6CF640B41C14200834886&upn=v18g60F2eMU&initcwndbps=1522500&mv=m&lmt=1439355427921007&clen=428162345&sver=3&source=youtube&mime=video/mp4&itag=137&expire=1439996081" 
Downloading audio file:  "https://r6---sn-oxujvavbox-jbol.googlevideo.com/videoplayback?sparams=clen,dur,gir,id,initcwndbps,ip,ipbits,itag,keepalive,lmt,mime,mm,mn,ms,mv,pl,requiressl,source,upn,expire&requiressl=yes&fexp=9405331,9405966,9406516,9406851,9408502,9408710,9409069,9410705,9412773,9412877,9412927,9415365,9415485,9416023,9416126,9417707,9418153,9419032&dur=1745.072&keepalive=yes&key=yt5&ip=87.79.217.252&id=o-AA8GtWl4i-pDVZq3nDOq1tc6VYcxm7c4qQN2jKKhZq12&mm=31&mn=sn-oxujvavbox-jbol&ipbits=0&ms=au&mt=1439974379&pl=15&gir=yes&signature=8A853F14D301775B40D2F5BE97DF9C3AD8EACC82.6CFB8DD42C3765B6715D2EA6196D4F08265C55FF&upn=v18g60F2eMU&initcwndbps=1522500&mv=m&lmt=1439354542322325&clen=27715921&sver=3&source=youtube&mime=audio/mp4&itag=140&expire=1439996081" 
Executing ffmpeg:  "avconv -y -i "/tmp/clipgrab-download-i20103" -i "/tmp/clipgrab-download-T20103" -acodec copy -vcodec copy -f mp4 "/tmp/clipgrab-concat--Z20103"" 
"avconv version 9.18-6:9.18-0ubuntu0.14.04.1, Copyright (c) 2000-2014 the Libav developers
  built on Mar 16 2015 13:19:10 with gcc 4.8 (Ubuntu 4.8.2-19ubuntu1)
Input #0, mov,mp4,m4a,3gp,3g2,mj2, from '/tmp/clipgrab-download-i20103':
  Metadata:
    major_brand     : dash
    minor_version   : 0
    compatible_brands: iso6avc1mp41
    creation_time   : 2015-08-12 04:48:43
  Duration: 00:29:05.00, start: 0.000000, bitrate: 1962 kb/s
    Stream #0.0(und): Video: h264 (High), yuv420p, 1920x1080 [PAR 1:1 DAR 16:9], 1960 kb/s, 25 fps, 25 tbr, 90k tbn, 50 tbc
    Metadata:
      creation_time   : 2015-08-12 04:48:43
Input #1, mov,mp4,m4a,3gp,3g2,mj2, from '/tmp/clipgrab-download-T20103':
  Metadata:
    major_brand     : dash
    minor_version   : 0
    compatible_brands: iso6mp41
    creation_time   : 2015-08-12 04:41:57
  Duration: 00:29:05.07, start: 0.000000, bitrate: 127 kb/s
    Stream #1.0(und): Audio: aac, 44100 Hz, stereo, fltp, 125 kb/s
    Metadata:
      creation_time   : 2015-08-12 04:41:57
Output #0, mp4, to '/tmp/clipgrab-concat--Z20103':
  Metadata:
    major_brand     : dash
    minor_version   : 0
    compatible_brands: iso6avc1mp41
    creation_time   : 2015-08-12 04:48:43
    encoder         : Lavf54.20.4
    Stream #0.0(und): Video: libx264, yuv420p, 1920x1080 [PAR 1:1 DAR 16:9], q=2-31, 1960 kb/s, 90k tbn, 90k tbc
    Metadata:
      creation_time   : 2015-08-12 04:48:43
    Stream #0.1(und): Audio: libvo_aacenc, 44100 Hz, stereo, 125 kb/s
    Metadata:
      creation_time   : 2015-08-12 04:41:57
Stream mapping:
  Stream #0:0 -> #0:0 (copy)
  Stream #1:0 -> #0:1 (copy)
Press ctrl-c to stop encoding
stream 0, offset 0x1985257e: partial file0kB time=1462.81 bitrate=2086.6kbits/s    
[mov,mp4,m4a,3gp,3g2,mj2 @ 0x24a24a0] stream 0, offset 0x1a6e39f: partial file
frame=43617 fps=36130 q=-1.0 Lsize=  445512kB time=1744.60 bitrate=2092.0kbits/s    
video:417573kB audio:26751kB global headers:0kB muxing overhead 0.267339%
" 
"" 
"/tmp/clipgrab-concat--Z20103" "/home/arnold/Desktop/Youtube Bass Lesson/How To Build An Awesome Funky Bass Line (L#107).mp4"